<svg xmlns="http://www.w3.org/2000/svg" width="64" height="64" viewBox="0 0 64 64" fill="none">
<path d="M43.3335 6C47.577 6 51.6466 7.68571 54.6472 10.6863C57.6478 13.6869 59.3335 17.7565 59.3335 22" stroke="#000" stroke-miterlimit="10" stroke-linecap="square"/>
<path d="M22 59.3335C17.7565 59.3335 13.6869 57.6478 10.6863 54.6472C7.68571 51.6466 6 47.577 6 43.3335" stroke="#000" stroke-miterlimit="10" stroke-linecap="square"/>
<path d="M57.7758 41.3775L41.3758 57.7775C40.8824 58.2711 40.2965 58.6627 39.6517 58.9299C39.0069 59.1971 38.3158 59.3346 37.6178 59.3346C36.9198 59.3346 36.2287 59.1971 35.5839 58.9299C34.9391 58.6627 34.3532 58.2711 33.8598 57.7775L7.55715 31.4668C7.06349 30.9734 6.67188 30.3875 6.4047 29.7427C6.13752 29.0979 6 28.4068 6 27.7088C6 27.0108 6.13752 26.3197 6.4047 25.6749C6.67188 25.0301 7.06349 24.4442 7.55715 23.9508L23.9571 7.5508C24.4506 7.05714 25.0364 6.66553 25.6812 6.39835C26.326 6.13117 27.0172 5.99365 27.7151 5.99365C28.4131 5.99365 29.1043 6.13117 29.7491 6.39835C30.3939 6.66553 30.9797 7.05714 31.4731 7.5508L57.7771 33.8668C58.2702 34.36 58.6613 34.9456 58.9281 35.59C59.1949 36.2343 59.3322 36.925 59.3321 37.6224C59.3319 38.3198 59.1944 39.0104 58.9274 39.6547C58.6604 40.299 58.2691 40.8844 57.7758 41.3775Z" stroke="black" stroke-miterlimit="10" stroke-linecap="square"/>
<!-- <path d="M21.3335 23.3335C22.4381 23.3335 23.3335 22.4381 23.3335 21.3335C23.3335 20.2289 22.4381 19.3335 21.3335 19.3335C20.2289 19.3335 19.3335 20.2289 19.3335 21.3335C19.3335 22.4381 20.2289 23.3335 21.3335 23.3335Z" fill="white"/> -->
</svg>